<svg width="18" height="18" viewBox="0 0 18 18" fill="none" xmlns="http://www.w3.org/2000/svg">
<path fill-rule="evenodd" clip-rule="evenodd" d="M11 5C11 4.72386 10.7761 4.5 10.5 4.5H7C4.23858 4.5 2 6.73858 2 9.5C2 9.70555 2.0124 9.9082 2.0365 10.1072C2.06433 10.3371 2.26643 10.5 2.49798 10.5C2.81611 10.5 3.04801 10.1987 3.018 9.88198C3.00609 9.75626 3 9.62884 3 9.5C3 7.29086 4.79086 5.5 7 5.5H10.5C10.7761 5.5 11 5.27614 11 5Z" fill="#121212"/>
<path fill-rule="evenodd" clip-rule="evenodd" d="M9.64645 3.14645C9.84171 2.95118 10.1583 2.95118 10.3536 3.14645L12.2071 5L10.3536 6.85355C10.1583 7.04882 9.84171 7.04882 9.64645 6.85355C9.45118 6.65829 9.45118 6.34171 9.64645 6.14645L10.7929 5L9.64645 3.85355C9.45118 3.65829 9.45118 3.34171 9.64645 3.14645Z" fill="#121212"/>
<path fill-rule="evenodd" clip-rule="evenodd" d="M6.5 13C6.5 13.2761 6.72386 13.5 7 13.5L10.5 13.5C13.2614 13.5 15.5 11.2614 15.5 8.5C15.5 8.29445 15.4876 8.0918 15.4635 7.89275C15.4357 7.66288 15.2336 7.5 15.002 7.5C14.6839 7.5 14.452 7.80131 14.482 8.11802C14.4939 8.24374 14.5 8.37116 14.5 8.5C14.5 10.7091 12.7091 12.5 10.5 12.5L7 12.5C6.72386 12.5 6.5 12.7239 6.5 13Z" fill="#121212"/>
<path fill-rule="evenodd" clip-rule="evenodd" d="M7.85355 14.8536C7.65829 15.0488 7.34171 15.0488 7.14645 14.8536L5.29289 13L7.14645 11.1464C7.34171 10.9512 7.65829 10.9512 7.85355 11.1464C8.04882 11.3417 8.04882 11.6583 7.85355 11.8536L6.70711 13L7.85355 14.1464C8.04882 14.3417 8.04882 14.6583 7.85355 14.8536Z" fill="#121212"/>
</svg>
