<svg width="30" height="30" viewBox="0 0 30 30" fill="none" xmlns="http://www.w3.org/2000/svg">
<path d="M12.4567 5.90085C13.9649 4.89885 15.9431 4.94051 17.4487 5.99095C18.8121 6.94214 20.1051 7.69654 21.5745 8.39077C23.2474 9.18117 24.2917 10.863 24.1903 12.6612C24.0974 14.3097 24.0951 15.8018 24.1869 17.4303C24.2871 19.2078 23.2928 20.8706 21.675 21.6487C20.1636 22.3756 18.8531 23.1292 17.4849 24.0577C15.974 25.0831 13.9995 25.0952 12.4917 24.0825C11.1577 23.1863 9.87329 22.4408 8.38713 21.7113C6.75582 20.9106 5.77373 19.1971 5.89994 17.3788C6.01448 15.7285 6.00939 14.2247 5.89022 12.5741C5.76076 10.7809 6.72654 9.08838 8.33611 8.28768C9.78893 7.56497 11.0789 6.81627 12.4567 5.90085Z" stroke="#8C909C" stroke-width="2"/>
<circle cx="14.9997" cy="15.0056" r="3.85714" stroke="#8C909C" stroke-width="2"/>
</svg>
