<svg width="25" height="25" viewBox="0 0 25 25" fill="none" xmlns="http://www.w3.org/2000/svg">
<path fill-rule="evenodd" clip-rule="evenodd" d="M12.5757 13.0441C13.7247 12.1771 14.4674 10.8003 14.4674 9.25C14.4674 6.62665 12.3407 4.5 9.7174 4.5C7.09404 4.5 4.9674 6.62665 4.9674 9.25C4.9674 10.8003 5.7101 12.1771 6.85912 13.0441C4.21494 14.0938 2.28551 16.5569 2.00314 19.5009C1.96359 19.9132 2.30318 20.25 2.7174 20.25C3.13161 20.25 3.46268 19.9126 3.51177 19.5014C3.88168 16.4025 6.51897 14 9.7174 14C12.9158 14 15.5531 16.4025 15.923 19.5014C15.9721 19.9126 16.3032 20.25 16.7174 20.25C17.1316 20.25 17.4712 19.9132 17.4317 19.5009C17.1493 16.5569 15.2199 14.0938 12.5757 13.0441ZM6.4674 9.25C6.4674 7.45507 7.92247 6 9.7174 6C11.5123 6 12.9674 7.45507 12.9674 9.25C12.9674 11.0449 11.5123 12.5 9.7174 12.5C7.92247 12.5 6.4674 11.0449 6.4674 9.25Z" fill="#121212"/>
<path d="M17.7174 15.2114C17.7174 14.773 18.0404 14.4113 18.4335 14.2172C19.3423 13.7684 19.9674 12.8322 19.9674 11.75C19.9674 10.2312 18.7362 9 17.2174 9C17.1866 9 17.156 9.0005 17.1255 9.0015C16.7483 9.01388 16.3637 8.84926 16.2041 8.50725C16.0099 8.09103 16.221 7.59192 16.6767 7.53407C16.8537 7.51159 17.0342 7.5 17.2174 7.5C19.5646 7.5 21.4674 9.40279 21.4674 11.75C21.4674 13.1019 20.8362 14.3064 19.8524 15.0848C21.6043 15.9005 22.9151 17.5044 23.3291 19.4407C23.4217 19.8741 23.0686 20.2537 22.6255 20.2537C22.2366 20.2537 21.917 19.9574 21.8212 19.5805C21.4053 17.9432 20.1389 16.6453 18.52 16.1846C18.0726 16.0573 17.7174 15.6765 17.7174 15.2114Z" fill="#121212"/>
</svg>
